<svg width="25" height="42" viewBox="0 0 25 42" fill="none" xmlns="http://www.w3.org/2000/svg">
<path d="M10.8932 1.52505C10.8932 1.05301 11.0385 0.67175 11.329 0.381263C11.6195 0.127087 12.0007 -5.68216e-07 12.4728 -5.47583e-07C12.9811 -5.25362e-07 13.3624 0.127087 13.6166 0.381263C13.907 0.67175 14.0523 1.05301 14.0523 1.52505C14.016 5.80973 13.8707 10.6209 13.6166 15.9586C13.3987 21.2963 13.2716 24.4372 13.2353 25.3813C12.9811 29.8475 12.8359 33.2607 12.7996 35.6209C12.7996 36.3834 12.9085 36.7647 13.1264 36.7647C13.2716 36.7647 13.5076 36.4742 13.8344 35.8932C16.2309 31.427 18.8453 28.3043 21.6776 26.5251C21.9317 26.3072 22.2767 26.1983 22.7124 26.1983C23.2571 26.1983 23.7654 26.4161 24.2375 26.8519C24.7458 27.3239 25 27.8141 25 28.3224C25 28.8308 24.7821 29.2121 24.3464 29.4662C21.7683 30.9913 19.5897 32.6071 17.8105 34.3137C16.0675 36.0566 14.6877 38.1627 13.671 40.6318C13.3805 41.4306 12.9811 41.8301 12.4728 41.8301C11.9644 41.8301 11.565 41.4306 11.2745 40.6318C10.2215 38.0901 8.85984 35.9477 7.18954 34.2048C5.51924 32.4982 3.41322 30.955 0.871459 29.5752C0.290484 29.2484 -1.25944e-06 28.8126 -1.23563e-06 28.268C-1.215e-06 27.7959 0.23602 27.3421 0.70806 26.9063C1.1801 26.4706 1.70661 26.2527 2.28758 26.2527C2.72331 26.2527 3.14089 26.3798 3.5403 26.634C6.19099 28.3406 8.7146 31.4815 11.1111 36.0566C11.4379 36.6376 11.6739 36.9281 11.8192 36.9281C12.037 36.9281 12.146 36.565 12.146 35.8388C12.1097 33.3696 11.9644 29.8293 11.7102 25.2179C11.2382 14.5062 10.9659 6.60857 10.8932 1.52505Z" fill="#1E1E1E"/>
</svg>
