<svg width="84" height="50" viewBox="0 0 84 50" fill="none" xmlns="http://www.w3.org/2000/svg">
<path d="M3.05011 28.2135C2.10603 28.2135 1.3435 27.923 0.762527 27.342C0.254176 26.7611 0 25.9985 0 25.0545C0 24.0378 0.254176 23.2752 0.762527 22.7669C1.3435 22.1859 2.10603 21.8954 3.05011 21.8954C11.6195 21.968 21.2418 22.2585 31.9172 22.7669C42.5926 23.2026 48.8744 23.4568 50.7625 23.5294C59.695 24.0378 66.5214 24.3282 71.2418 24.4009C72.7669 24.4009 73.5294 24.183 73.5294 23.7473C73.5294 23.4568 72.9484 22.9847 71.7865 22.3312C62.854 17.5381 56.6086 12.3094 53.0501 6.64488C52.6144 6.13653 52.3965 5.44662 52.3965 4.57516C52.3965 3.48584 52.8322 2.46913 53.7037 1.52505C54.6478 0.50835 55.6282 0 56.6449 0C57.6616 0 58.4241 0.435729 58.9325 1.30719C61.9826 6.46332 65.2142 10.8206 68.6275 14.3791C72.1133 17.8649 76.3253 20.6245 81.2636 22.658C82.8613 23.2389 83.6601 24.0378 83.6601 25.0545C83.6601 26.0712 82.8613 26.87 81.2636 27.451C76.1801 29.557 71.8954 32.2803 68.4096 35.6209C64.9964 38.9615 61.91 43.1736 59.1503 48.2571C58.4967 49.419 57.6253 50 56.5359 50C55.5919 50 54.6841 49.528 53.8126 48.5839C52.9412 47.6398 52.5054 46.5868 52.5054 45.4248C52.5054 44.5534 52.7596 43.7182 53.268 42.9194C56.6812 37.618 62.963 32.5708 72.1133 27.7778C73.2752 27.1242 73.8562 26.6521 73.8562 26.3617C73.8562 25.9259 73.13 25.7081 71.6776 25.7081C66.7393 25.7807 59.6587 26.0712 50.4357 26.5795C29.0123 27.5236 13.2171 28.0683 3.05011 28.2135Z" fill="#1E1E1E"/>
</svg>
